<?xml version="1.0" encoding="UTF-8"?>
<svg xmlns="http://www.w3.org/2000/svg" version="1.1" width="200" height="200" viewBox="0 0 200 200"><rect x="0" y="0" width="200" height="200" fill="#ffffff"/><g transform="scale(8)"><g transform="translate(0,0)"><path fill-rule="evenodd" d="M9 0L9 1L8 1L8 2L9 2L9 3L8 3L8 4L10 4L10 7L11 7L11 4L12 4L12 5L13 5L13 4L15 4L15 3L13 3L13 4L12 4L12 2L14 2L14 1L11 1L11 2L10 2L10 0ZM16 0L16 1L15 1L15 2L17 2L17 0ZM10 3L10 4L11 4L11 3ZM16 4L16 5L14 5L14 7L15 7L15 6L16 6L16 8L13 8L13 6L12 6L12 9L14 9L14 10L11 10L11 11L10 11L10 9L11 9L11 8L6 8L6 9L5 9L5 8L0 8L0 9L4 9L4 10L1 10L1 11L3 11L3 12L1 12L1 13L0 13L0 17L1 17L1 14L3 14L3 12L4 12L4 10L6 10L6 11L5 11L5 12L6 12L6 13L7 13L7 14L4 14L4 15L5 15L5 17L8 17L8 19L9 19L9 20L8 20L8 25L9 25L9 23L11 23L11 22L10 22L10 19L11 19L11 21L12 21L12 22L13 22L13 23L12 23L12 25L13 25L13 24L14 24L14 25L16 25L16 24L17 24L17 25L18 25L18 24L20 24L20 22L21 22L21 24L22 24L22 25L25 25L25 18L24 18L24 17L25 17L25 14L24 14L24 13L25 13L25 10L23 10L23 12L22 12L22 11L21 11L21 10L20 10L20 11L21 11L21 12L18 12L18 11L19 11L19 10L18 10L18 8L17 8L17 4ZM8 5L8 7L9 7L9 5ZM19 8L19 9L20 9L20 8ZM21 8L21 9L22 9L22 8ZM23 8L23 9L24 9L24 8ZM6 9L6 10L8 10L8 11L9 11L9 9ZM15 9L15 10L14 10L14 11L12 11L12 13L11 13L11 12L10 12L10 13L11 13L11 14L10 14L10 15L8 15L8 16L10 16L10 17L9 17L9 19L10 19L10 17L11 17L11 18L13 18L13 19L12 19L12 21L15 21L15 20L14 20L14 19L16 19L16 17L14 17L14 16L15 16L15 15L14 15L14 16L13 16L13 17L12 17L12 15L13 15L13 14L12 14L12 13L14 13L14 14L16 14L16 16L17 16L17 14L16 14L16 13L15 13L15 12L16 12L16 11L15 11L15 10L17 10L17 11L18 11L18 10L17 10L17 9ZM6 11L6 12L7 12L7 13L9 13L9 12L7 12L7 11ZM14 11L14 12L15 12L15 11ZM17 12L17 13L18 13L18 14L19 14L19 15L20 15L20 16L21 16L21 19L22 19L22 20L21 20L21 22L23 22L23 23L22 23L22 24L24 24L24 22L23 22L23 21L22 21L22 20L24 20L24 18L23 18L23 17L22 17L22 16L23 16L23 15L24 15L24 14L22 14L22 16L21 16L21 15L20 15L20 14L21 14L21 13L22 13L22 12L21 12L21 13L20 13L20 14L19 14L19 13L18 13L18 12ZM6 15L6 16L7 16L7 15ZM2 16L2 17L4 17L4 16ZM17 17L17 20L20 20L20 17ZM18 18L18 19L19 19L19 18ZM22 18L22 19L23 19L23 18ZM16 21L16 22L15 22L15 23L14 23L14 24L16 24L16 23L17 23L17 21ZM18 22L18 23L19 23L19 22ZM0 0L0 7L7 7L7 0ZM1 1L1 6L6 6L6 1ZM2 2L2 5L5 5L5 2ZM18 0L18 7L25 7L25 0ZM19 1L19 6L24 6L24 1ZM20 2L20 5L23 5L23 2ZM0 18L0 25L7 25L7 18ZM1 19L1 24L6 24L6 19ZM2 20L2 23L5 23L5 20Z" fill="#000000"/></g></g></svg>
