<?xml version="1.0" encoding="UTF-8"?>
<svg xmlns="http://www.w3.org/2000/svg" version="1.1" width="200" height="200" viewBox="0 0 200 200"><rect x="0" y="0" width="200" height="200" fill="#ffffff"/><g transform="scale(8)"><g transform="translate(0,0)"><path fill-rule="evenodd" d="M10 0L10 1L8 1L8 3L9 3L9 4L8 4L8 8L6 8L6 9L5 9L5 11L8 11L8 12L4 12L4 11L3 11L3 12L4 12L4 16L3 16L3 17L7 17L7 16L6 16L6 15L7 15L7 14L9 14L9 15L10 15L10 16L8 16L8 19L12 19L12 20L13 20L13 18L14 18L14 20L15 20L15 19L16 19L16 21L14 21L14 22L16 22L16 21L17 21L17 23L16 23L16 25L17 25L17 24L18 24L18 25L19 25L19 24L18 24L18 21L20 21L20 24L21 24L21 23L23 23L23 22L21 22L21 21L22 21L22 20L24 20L24 21L25 21L25 20L24 20L24 19L25 19L25 17L24 17L24 16L25 16L25 12L24 12L24 11L25 11L25 9L24 9L24 8L22 8L22 9L24 9L24 11L23 11L23 13L21 13L21 14L20 14L20 15L19 15L19 13L20 13L20 12L21 12L21 11L22 11L22 10L21 10L21 11L20 11L20 10L19 10L19 9L21 9L21 8L18 8L18 9L17 9L17 10L16 10L16 11L17 11L17 13L16 13L16 14L17 14L17 15L19 15L19 16L16 16L16 15L15 15L15 14L14 14L14 13L15 13L15 12L14 12L14 11L15 11L15 9L14 9L14 8L17 8L17 5L16 5L16 4L17 4L17 1L16 1L16 0L14 0L14 2L15 2L15 3L14 3L14 4L13 4L13 3L12 3L12 7L11 7L11 4L10 4L10 3L9 3L9 2L11 2L11 0ZM14 4L14 6L13 6L13 7L12 7L12 8L14 8L14 6L15 6L15 7L16 7L16 6L15 6L15 4ZM9 5L9 8L8 8L8 10L9 10L9 11L11 11L11 8L10 8L10 5ZM0 8L0 9L2 9L2 10L0 10L0 11L1 11L1 12L0 12L0 13L2 13L2 15L1 15L1 14L0 14L0 15L1 15L1 16L0 16L0 17L2 17L2 15L3 15L3 13L2 13L2 10L3 10L3 9L4 9L4 8L3 8L3 9L2 9L2 8ZM6 9L6 10L7 10L7 9ZM9 9L9 10L10 10L10 9ZM13 9L13 10L14 10L14 9ZM17 10L17 11L18 11L18 10ZM19 11L19 12L20 12L20 11ZM8 12L8 13L10 13L10 14L11 14L11 13L10 13L10 12ZM12 12L12 16L11 16L11 17L10 17L10 18L12 18L12 16L14 16L14 17L15 17L15 18L16 18L16 17L15 17L15 15L13 15L13 13L14 13L14 12ZM6 13L6 14L5 14L5 15L6 15L6 14L7 14L7 13ZM23 13L23 15L22 15L22 16L24 16L24 13ZM17 17L17 20L20 20L20 17ZM22 17L22 18L21 18L21 20L22 20L22 19L23 19L23 18L24 18L24 17ZM18 18L18 19L19 19L19 18ZM9 20L9 21L8 21L8 22L9 22L9 23L8 23L8 25L9 25L9 23L10 23L10 24L11 24L11 22L12 22L12 21L11 21L11 22L9 22L9 21L10 21L10 20ZM24 22L24 23L25 23L25 22ZM14 23L14 24L15 24L15 23ZM12 24L12 25L13 25L13 24ZM23 24L23 25L25 25L25 24ZM0 0L0 7L7 7L7 0ZM1 1L1 6L6 6L6 1ZM2 2L2 5L5 5L5 2ZM18 0L18 7L25 7L25 0ZM19 1L19 6L24 6L24 1ZM20 2L20 5L23 5L23 2ZM0 18L0 25L7 25L7 18ZM1 19L1 24L6 24L6 19ZM2 20L2 23L5 23L5 20Z" fill="#000000"/></g></g></svg>
