<?xml version="1.0" encoding="UTF-8"?>
<svg xmlns="http://www.w3.org/2000/svg" version="1.1" width="200" height="200" viewBox="0 0 200 200"><rect x="0" y="0" width="200" height="200" fill="#ffffff"/><g transform="scale(8)"><g transform="translate(0,0)"><path fill-rule="evenodd" d="M8 0L8 1L10 1L10 0ZM14 0L14 1L13 1L13 2L11 2L11 4L10 4L10 3L9 3L9 2L8 2L8 5L9 5L9 6L8 6L8 7L9 7L9 8L8 8L8 9L7 9L7 8L6 8L6 9L4 9L4 8L0 8L0 10L2 10L2 11L0 11L0 12L1 12L1 15L0 15L0 16L1 16L1 15L2 15L2 16L5 16L5 17L8 17L8 18L11 18L11 19L10 19L10 20L9 20L9 21L8 21L8 25L11 25L11 23L14 23L14 22L15 22L15 24L14 24L14 25L16 25L16 22L17 22L17 21L18 21L18 23L17 23L17 24L18 24L18 25L19 25L19 24L18 24L18 23L20 23L20 24L21 24L21 23L22 23L22 25L25 25L25 24L23 24L23 23L24 23L24 22L25 22L25 21L24 21L24 19L25 19L25 17L24 17L24 16L25 16L25 15L23 15L23 12L24 12L24 14L25 14L25 12L24 12L24 11L23 11L23 10L24 10L24 9L25 9L25 8L24 8L24 9L23 9L23 8L20 8L20 9L21 9L21 10L19 10L19 11L21 11L21 10L22 10L22 14L21 14L21 12L18 12L18 14L19 14L19 15L17 15L17 13L16 13L16 12L15 12L15 13L13 13L13 14L12 14L12 12L14 12L14 10L15 10L15 9L14 9L14 10L13 10L13 11L11 11L11 13L10 13L10 12L9 12L9 13L8 13L8 12L6 12L6 11L7 11L7 10L8 10L8 11L9 11L9 10L10 10L10 9L9 9L9 8L10 8L10 7L11 7L11 8L12 8L12 7L13 7L13 6L14 6L14 7L15 7L15 8L16 8L16 7L17 7L17 5L16 5L16 4L17 4L17 2L16 2L16 3L15 3L15 0ZM16 0L16 1L17 1L17 0ZM12 3L12 5L10 5L10 6L9 6L9 7L10 7L10 6L11 6L11 7L12 7L12 5L14 5L14 6L15 6L15 7L16 7L16 5L15 5L15 3L14 3L14 4L13 4L13 3ZM17 8L17 10L16 10L16 11L18 11L18 8ZM3 9L3 11L2 11L2 13L5 13L5 14L3 14L3 15L5 15L5 14L7 14L7 15L6 15L6 16L8 16L8 17L11 17L11 18L12 18L12 17L14 17L14 18L13 18L13 20L14 20L14 21L16 21L16 18L15 18L15 15L16 15L16 16L17 16L17 15L16 15L16 14L15 14L15 15L14 15L14 14L13 14L13 15L14 15L14 16L12 16L12 14L9 14L9 15L8 15L8 13L6 13L6 12L5 12L5 11L6 11L6 10L7 10L7 9L6 9L6 10L4 10L4 9ZM22 9L22 10L23 10L23 9ZM3 11L3 12L4 12L4 11ZM19 13L19 14L20 14L20 13ZM10 15L10 16L11 16L11 17L12 17L12 16L11 16L11 15ZM19 15L19 16L21 16L21 15ZM22 15L22 16L23 16L23 15ZM17 17L17 20L20 20L20 17ZM21 17L21 19L22 19L22 21L21 21L21 22L22 22L22 23L23 23L23 19L24 19L24 18L23 18L23 17ZM18 18L18 19L19 19L19 18ZM11 19L11 20L12 20L12 19ZM11 21L11 22L10 22L10 23L9 23L9 24L10 24L10 23L11 23L11 22L12 22L12 21ZM19 21L19 22L20 22L20 21ZM12 24L12 25L13 25L13 24ZM0 0L0 7L7 7L7 0ZM1 1L1 6L6 6L6 1ZM2 2L2 5L5 5L5 2ZM18 0L18 7L25 7L25 0ZM19 1L19 6L24 6L24 1ZM20 2L20 5L23 5L23 2ZM0 18L0 25L7 25L7 18ZM1 19L1 24L6 24L6 19ZM2 20L2 23L5 23L5 20Z" fill="#000000"/></g></g></svg>
