<?xml version="1.0" encoding="UTF-8"?>
<svg xmlns="http://www.w3.org/2000/svg" version="1.1" width="200" height="200" viewBox="0 0 200 200"><rect x="0" y="0" width="200" height="200" fill="#ffffff"/><g transform="scale(8)"><g transform="translate(0,0)"><path fill-rule="evenodd" d="M9 0L9 1L8 1L8 2L9 2L9 3L8 3L8 4L10 4L10 7L11 7L11 4L12 4L12 5L13 5L13 4L14 4L14 8L13 8L13 6L12 6L12 9L15 9L15 8L16 8L16 9L18 9L18 8L16 8L16 7L17 7L17 6L16 6L16 5L15 5L15 4L17 4L17 2L16 2L16 1L17 1L17 0L16 0L16 1L14 1L14 0L13 0L13 1L11 1L11 2L10 2L10 0ZM12 2L12 4L13 4L13 3L14 3L14 4L15 4L15 3L16 3L16 2L15 2L15 3L14 3L14 2ZM10 3L10 4L11 4L11 3ZM8 5L8 7L9 7L9 5ZM15 6L15 7L16 7L16 6ZM0 8L0 9L5 9L5 10L3 10L3 11L0 11L0 12L3 12L3 13L4 13L4 14L3 14L3 15L4 15L4 14L5 14L5 12L6 12L6 13L7 13L7 12L8 12L8 14L9 14L9 13L10 13L10 15L9 15L9 16L8 16L8 19L9 19L9 17L10 17L10 16L11 16L11 13L12 13L12 14L13 14L13 15L12 15L12 17L13 17L13 16L14 16L14 17L16 17L16 19L14 19L14 20L15 20L15 21L12 21L12 19L13 19L13 18L10 18L10 20L8 20L8 25L9 25L9 24L10 24L10 23L11 23L11 22L10 22L10 23L9 23L9 21L12 21L12 22L13 22L13 23L12 23L12 25L13 25L13 24L14 24L14 25L15 25L15 24L17 24L17 25L19 25L19 24L18 24L18 23L16 23L16 22L22 22L22 23L21 23L21 24L20 24L20 25L21 25L21 24L22 24L22 25L25 25L25 18L24 18L24 17L25 17L25 16L24 16L24 17L23 17L23 16L22 16L22 17L23 17L23 18L24 18L24 20L22 20L22 18L21 18L21 16L19 16L19 15L18 15L18 16L16 16L16 14L14 14L14 13L12 13L12 11L14 11L14 12L15 12L15 13L17 13L17 14L18 14L18 13L21 13L21 14L20 14L20 15L21 15L21 14L22 14L22 13L23 13L23 14L24 14L24 15L25 15L25 14L24 14L24 13L23 13L23 12L22 12L22 10L23 10L23 11L24 11L24 12L25 12L25 10L23 10L23 9L24 9L24 8L23 8L23 9L22 9L22 8L21 8L21 9L22 9L22 10L21 10L21 12L20 12L20 11L19 11L19 12L18 12L18 13L17 13L17 12L15 12L15 11L16 11L16 10L15 10L15 11L14 11L14 10L11 10L11 11L10 11L10 9L11 9L11 8L6 8L6 9L5 9L5 8ZM19 8L19 10L20 10L20 8ZM6 9L6 10L5 10L5 11L4 11L4 12L5 12L5 11L6 11L6 12L7 12L7 11L6 11L6 10L7 10L7 9ZM8 9L8 11L9 11L9 9ZM10 12L10 13L11 13L11 12ZM21 12L21 13L22 13L22 12ZM0 13L0 17L1 17L1 13ZM6 14L6 15L5 15L5 17L7 17L7 16L6 16L6 15L7 15L7 14ZM14 15L14 16L15 16L15 15ZM2 16L2 17L4 17L4 16ZM17 17L17 20L20 20L20 17ZM18 18L18 19L19 19L19 18ZM21 20L21 21L22 21L22 22L23 22L23 23L22 23L22 24L24 24L24 22L23 22L23 21L22 21L22 20ZM15 21L15 22L16 22L16 21ZM14 23L14 24L15 24L15 23ZM0 0L0 7L7 7L7 0ZM1 1L1 6L6 6L6 1ZM2 2L2 5L5 5L5 2ZM18 0L18 7L25 7L25 0ZM19 1L19 6L24 6L24 1ZM20 2L20 5L23 5L23 2ZM0 18L0 25L7 25L7 18ZM1 19L1 24L6 24L6 19ZM2 20L2 23L5 23L5 20Z" fill="#000000"/></g></g></svg>
