<?xml version="1.0" encoding="UTF-8"?>
<svg xmlns="http://www.w3.org/2000/svg" version="1.1" width="200" height="200" viewBox="0 0 200 200"><rect x="0" y="0" width="200" height="200" fill="#ffffff"/><g transform="scale(8)"><g transform="translate(0,0)"><path fill-rule="evenodd" d="M9 0L9 1L8 1L8 2L9 2L9 3L8 3L8 4L10 4L10 7L11 7L11 4L12 4L12 5L15 5L15 6L14 6L14 8L13 8L13 6L12 6L12 9L14 9L14 12L15 12L15 13L16 13L16 14L14 14L14 13L12 13L12 11L13 11L13 10L11 10L11 11L10 11L10 9L11 9L11 8L6 8L6 9L9 9L9 10L6 10L6 11L9 11L9 13L8 13L8 12L5 12L5 11L4 11L4 12L5 12L5 13L7 13L7 14L5 14L5 15L4 15L4 13L3 13L3 10L4 10L4 9L5 9L5 8L0 8L0 10L2 10L2 11L0 11L0 17L1 17L1 13L2 13L2 16L6 16L6 17L8 17L8 19L9 19L9 20L8 20L8 25L10 25L10 24L11 24L11 22L10 22L10 21L12 21L12 22L13 22L13 23L12 23L12 25L13 25L13 24L14 24L14 25L15 25L15 24L14 24L14 23L16 23L16 24L19 24L19 25L20 25L20 24L21 24L21 25L25 25L25 18L24 18L24 17L23 17L23 16L25 16L25 14L24 14L24 13L25 13L25 12L24 12L24 11L25 11L25 10L24 10L24 8L23 8L23 9L22 9L22 8L21 8L21 10L24 10L24 11L23 11L23 12L20 12L20 11L17 11L17 12L15 12L15 11L16 11L16 10L17 10L17 9L18 9L18 8L17 8L17 9L16 9L16 10L15 10L15 9L14 9L14 8L16 8L16 7L17 7L17 6L16 6L16 5L15 5L15 4L17 4L17 2L16 2L16 1L15 1L15 0L13 0L13 1L11 1L11 2L10 2L10 0ZM13 1L13 2L12 2L12 4L13 4L13 3L14 3L14 4L15 4L15 3L16 3L16 2L15 2L15 1ZM14 2L14 3L15 3L15 2ZM10 3L10 4L11 4L11 3ZM8 5L8 7L9 7L9 5ZM15 6L15 7L16 7L16 6ZM19 8L19 10L20 10L20 8ZM10 12L10 13L9 13L9 14L8 14L8 15L6 15L6 16L9 16L9 19L11 19L11 18L13 18L13 19L12 19L12 21L15 21L15 20L14 20L14 19L16 19L16 17L14 17L14 16L15 16L15 15L14 15L14 16L13 16L13 17L12 17L12 15L13 15L13 14L12 14L12 13L11 13L11 12ZM17 12L17 13L18 13L18 14L19 14L19 16L20 16L20 15L21 15L21 14L23 14L23 15L22 15L22 16L21 16L21 17L22 17L22 16L23 16L23 15L24 15L24 14L23 14L23 13L24 13L24 12L23 12L23 13L18 13L18 12ZM10 13L10 14L11 14L11 13ZM16 15L16 16L18 16L18 15ZM10 16L10 18L11 18L11 16ZM17 17L17 20L20 20L20 17ZM18 18L18 19L19 19L19 18ZM21 18L21 19L22 19L22 20L21 20L21 21L22 21L22 20L24 20L24 19L23 19L23 18ZM17 21L17 22L16 22L16 23L17 23L17 22L18 22L18 23L21 23L21 24L24 24L24 22L22 22L22 23L21 23L21 22L18 22L18 21ZM9 23L9 24L10 24L10 23ZM0 0L0 7L7 7L7 0ZM1 1L1 6L6 6L6 1ZM2 2L2 5L5 5L5 2ZM18 0L18 7L25 7L25 0ZM19 1L19 6L24 6L24 1ZM20 2L20 5L23 5L23 2ZM0 18L0 25L7 25L7 18ZM1 19L1 24L6 24L6 19ZM2 20L2 23L5 23L5 20Z" fill="#000000"/></g></g></svg>
