<?xml version="1.0" encoding="UTF-8"?>
<svg xmlns="http://www.w3.org/2000/svg" version="1.1" width="200" height="200" viewBox="0 0 200 200"><rect x="0" y="0" width="200" height="200" fill="#ffffff"/><g transform="scale(8)"><g transform="translate(0,0)"><path fill-rule="evenodd" d="M8 0L8 1L10 1L10 0ZM13 0L13 1L14 1L14 2L11 2L11 4L10 4L10 3L9 3L9 2L8 2L8 5L9 5L9 6L8 6L8 7L9 7L9 8L8 8L8 9L7 9L7 8L6 8L6 9L4 9L4 8L0 8L0 9L1 9L1 10L0 10L0 13L1 13L1 15L0 15L0 16L1 16L1 15L2 15L2 17L4 17L4 16L6 16L6 17L7 17L7 16L8 16L8 18L9 18L9 21L8 21L8 25L9 25L9 24L10 24L10 25L11 25L11 23L14 23L14 22L16 22L16 21L18 21L18 25L19 25L19 23L20 23L20 24L21 24L21 23L22 23L22 25L25 25L25 24L23 24L23 23L24 23L24 22L25 22L25 21L24 21L24 19L25 19L25 17L23 17L23 16L22 16L22 15L21 15L21 16L19 16L19 15L18 15L18 14L22 14L22 13L23 13L23 15L24 15L24 16L25 16L25 15L24 15L24 14L25 14L25 12L24 12L24 11L22 11L22 9L23 9L23 10L24 10L24 9L25 9L25 8L24 8L24 9L23 9L23 8L20 8L20 9L21 9L21 11L20 11L20 10L19 10L19 11L18 11L18 8L17 8L17 5L16 5L16 4L17 4L17 1L16 1L16 2L15 2L15 0ZM14 2L14 4L13 4L13 3L12 3L12 5L10 5L10 6L9 6L9 7L10 7L10 8L9 8L9 9L8 9L8 10L9 10L9 11L5 11L5 10L4 10L4 9L3 9L3 11L2 11L2 12L4 12L4 13L3 13L3 14L2 14L2 15L3 15L3 16L4 16L4 13L5 13L5 12L10 12L10 13L11 13L11 11L14 11L14 12L12 12L12 14L11 14L11 16L10 16L10 15L9 15L9 13L6 13L6 14L7 14L7 15L6 15L6 16L7 16L7 15L8 15L8 16L9 16L9 18L10 18L10 19L11 19L11 20L12 20L12 19L11 19L11 18L12 18L12 17L14 17L14 18L13 18L13 20L14 20L14 21L16 21L16 18L15 18L15 15L16 15L16 16L17 16L17 14L18 14L18 12L17 12L17 10L16 10L16 9L17 9L17 8L14 8L14 6L15 6L15 7L16 7L16 5L15 5L15 2ZM12 5L12 7L11 7L11 6L10 6L10 7L11 7L11 8L12 8L12 7L13 7L13 6L14 6L14 5ZM6 9L6 10L7 10L7 9ZM9 9L9 10L10 10L10 9ZM14 9L14 11L15 11L15 13L13 13L13 14L12 14L12 16L11 16L11 17L12 17L12 16L14 16L14 15L15 15L15 14L16 14L16 13L17 13L17 12L16 12L16 11L15 11L15 9ZM19 12L19 13L20 13L20 12ZM21 12L21 13L22 13L22 12ZM23 12L23 13L24 13L24 12ZM13 14L13 15L14 15L14 14ZM17 17L17 20L20 20L20 17ZM18 18L18 19L19 19L19 18ZM21 18L21 19L22 19L22 20L21 20L21 21L23 21L23 19L24 19L24 18ZM9 21L9 23L10 23L10 21ZM11 21L11 22L12 22L12 21ZM19 21L19 22L20 22L20 21ZM22 22L22 23L23 23L23 22ZM15 23L15 24L14 24L14 25L15 25L15 24L16 24L16 23ZM12 24L12 25L13 25L13 24ZM0 0L0 7L7 7L7 0ZM1 1L1 6L6 6L6 1ZM2 2L2 5L5 5L5 2ZM18 0L18 7L25 7L25 0ZM19 1L19 6L24 6L24 1ZM20 2L20 5L23 5L23 2ZM0 18L0 25L7 25L7 18ZM1 19L1 24L6 24L6 19ZM2 20L2 23L5 23L5 20Z" fill="#000000"/></g></g></svg>
