<?xml version="1.0" encoding="UTF-8"?>
<svg xmlns="http://www.w3.org/2000/svg" version="1.1" width="200" height="200" viewBox="0 0 200 200"><rect x="0" y="0" width="200" height="200" fill="#ffffff"/><g transform="scale(8)"><g transform="translate(0,0)"><path fill-rule="evenodd" d="M9 0L9 1L8 1L8 2L9 2L9 3L8 3L8 4L10 4L10 7L11 7L11 4L12 4L12 5L14 5L14 8L13 8L13 6L12 6L12 9L13 9L13 10L11 10L11 11L10 11L10 9L11 9L11 8L6 8L6 9L8 9L8 10L5 10L5 8L0 8L0 9L1 9L1 10L0 10L0 11L1 11L1 10L2 10L2 12L1 12L1 13L0 13L0 17L1 17L1 13L2 13L2 14L3 14L3 13L4 13L4 15L2 15L2 16L4 16L4 17L7 17L7 16L4 16L4 15L5 15L5 14L6 14L6 15L7 15L7 14L6 14L6 13L7 13L7 12L8 12L8 11L9 11L9 14L10 14L10 15L11 15L11 13L12 13L12 14L13 14L13 15L12 15L12 17L13 17L13 16L14 16L14 17L15 17L15 18L16 18L16 20L15 20L15 19L14 19L14 20L15 20L15 21L12 21L12 19L13 19L13 18L11 18L11 16L9 16L9 15L8 15L8 16L9 16L9 17L8 17L8 19L9 19L9 20L8 20L8 25L9 25L9 24L10 24L10 25L11 25L11 22L10 22L10 20L11 20L11 21L12 21L12 22L13 22L13 23L12 23L12 25L13 25L13 24L14 24L14 25L16 25L16 24L17 24L17 25L20 25L20 24L19 24L19 23L18 23L18 22L21 22L21 24L22 24L22 25L25 25L25 18L24 18L24 17L23 17L23 16L22 16L22 17L21 17L21 15L20 15L20 13L23 13L23 14L24 14L24 16L25 16L25 14L24 14L24 13L25 13L25 12L24 12L24 11L25 11L25 10L24 10L24 8L23 8L23 10L22 10L22 8L21 8L21 10L22 10L22 11L23 11L23 12L21 12L21 11L20 11L20 10L18 10L18 8L17 8L17 9L16 9L16 10L15 10L15 6L16 6L16 7L17 7L17 4L16 4L16 5L14 5L14 4L15 4L15 2L16 2L16 3L17 3L17 1L15 1L15 0L13 0L13 1L11 1L11 2L10 2L10 0ZM13 1L13 2L12 2L12 4L13 4L13 3L14 3L14 2L15 2L15 1ZM10 3L10 4L11 4L11 3ZM8 5L8 7L9 7L9 5ZM19 8L19 9L20 9L20 8ZM2 9L2 10L3 10L3 12L4 12L4 13L5 13L5 12L7 12L7 11L5 11L5 10L4 10L4 9ZM13 10L13 11L12 11L12 13L14 13L14 14L17 14L17 15L18 15L18 16L20 16L20 15L19 15L19 13L20 13L20 12L19 12L19 13L15 13L15 12L14 12L14 11L15 11L15 10ZM16 10L16 11L17 11L17 12L18 12L18 11L17 11L17 10ZM23 10L23 11L24 11L24 10ZM10 12L10 13L11 13L11 12ZM14 15L14 16L15 16L15 17L16 17L16 16L15 16L15 15ZM17 17L17 20L20 20L20 17ZM22 17L22 18L21 18L21 21L22 21L22 22L23 22L23 23L22 23L22 24L24 24L24 22L23 22L23 21L22 21L22 20L24 20L24 18L23 18L23 17ZM9 18L9 19L10 19L10 18ZM18 18L18 19L19 19L19 18ZM22 18L22 19L23 19L23 18ZM15 21L15 23L14 23L14 24L16 24L16 23L17 23L17 24L18 24L18 23L17 23L17 22L18 22L18 21ZM9 22L9 23L10 23L10 22ZM0 0L0 7L7 7L7 0ZM1 1L1 6L6 6L6 1ZM2 2L2 5L5 5L5 2ZM18 0L18 7L25 7L25 0ZM19 1L19 6L24 6L24 1ZM20 2L20 5L23 5L23 2ZM0 18L0 25L7 25L7 18ZM1 19L1 24L6 24L6 19ZM2 20L2 23L5 23L5 20Z" fill="#000000"/></g></g></svg>
