<?xml version="1.0" encoding="UTF-8"?>
<svg xmlns="http://www.w3.org/2000/svg" version="1.1" width="200" height="200" viewBox="0 0 200 200"><rect x="0" y="0" width="200" height="200" fill="#ffffff"/><g transform="scale(8)"><g transform="translate(0,0)"><path fill-rule="evenodd" d="M9 0L9 1L8 1L8 2L9 2L9 3L8 3L8 4L10 4L10 7L11 7L11 4L12 4L12 5L13 5L13 6L12 6L12 9L14 9L14 10L15 10L15 11L14 11L14 12L15 12L15 13L16 13L16 14L14 14L14 13L12 13L12 11L13 11L13 10L11 10L11 11L10 11L10 9L11 9L11 8L6 8L6 9L7 9L7 10L6 10L6 11L4 11L4 9L5 9L5 8L0 8L0 9L3 9L3 11L4 11L4 13L5 13L5 14L3 14L3 13L2 13L2 16L3 16L3 15L4 15L4 16L6 16L6 17L7 17L7 16L6 16L6 15L7 15L7 14L9 14L9 13L10 13L10 15L11 15L11 13L12 13L12 14L13 14L13 15L12 15L12 17L13 17L13 16L14 16L14 17L16 17L16 19L14 19L14 20L15 20L15 21L12 21L12 19L13 19L13 18L11 18L11 16L9 16L9 15L8 15L8 19L9 19L9 17L10 17L10 21L12 21L12 22L13 22L13 23L12 23L12 25L13 25L13 24L14 24L14 25L15 25L15 24L17 24L17 23L18 23L18 24L19 24L19 25L20 25L20 24L22 24L22 25L25 25L25 18L24 18L24 17L25 17L25 14L22 14L22 13L23 13L23 12L24 12L24 11L25 11L25 10L24 10L24 8L23 8L23 10L24 10L24 11L23 11L23 12L22 12L22 11L21 11L21 10L22 10L22 8L21 8L21 10L18 10L18 8L16 8L16 7L17 7L17 4L16 4L16 3L17 3L17 0L16 0L16 1L15 1L15 0L14 0L14 1L11 1L11 2L10 2L10 0ZM12 2L12 4L13 4L13 3L14 3L14 2ZM15 2L15 3L16 3L16 2ZM10 3L10 4L11 4L11 3ZM14 4L14 5L16 5L16 4ZM8 5L8 7L9 7L9 5ZM13 6L13 8L15 8L15 7L16 7L16 6L15 6L15 7L14 7L14 6ZM19 8L19 9L20 9L20 8ZM15 9L15 10L16 10L16 11L17 11L17 9ZM0 10L0 11L1 11L1 12L0 12L0 17L1 17L1 12L2 12L2 10ZM8 10L8 11L6 11L6 12L8 12L8 13L9 13L9 10ZM19 11L19 13L18 13L18 12L17 12L17 13L18 13L18 14L16 14L16 15L14 15L14 16L16 16L16 15L17 15L17 16L18 16L18 14L19 14L19 13L20 13L20 15L19 15L19 16L20 16L20 15L21 15L21 16L23 16L23 15L21 15L21 13L22 13L22 12L21 12L21 13L20 13L20 11ZM10 12L10 13L11 13L11 12ZM6 13L6 14L7 14L7 13ZM17 17L17 20L20 20L20 17ZM18 18L18 19L19 19L19 18ZM21 18L21 19L22 19L22 20L21 20L21 21L22 21L22 20L24 20L24 18L23 18L23 19L22 19L22 18ZM8 20L8 25L9 25L9 23L11 23L11 22L9 22L9 20ZM16 21L16 22L18 22L18 23L19 23L19 24L20 24L20 23L22 23L22 24L24 24L24 22L20 22L20 23L19 23L19 22L18 22L18 21ZM14 23L14 24L15 24L15 23ZM0 0L0 7L7 7L7 0ZM1 1L1 6L6 6L6 1ZM2 2L2 5L5 5L5 2ZM18 0L18 7L25 7L25 0ZM19 1L19 6L24 6L24 1ZM20 2L20 5L23 5L23 2ZM0 18L0 25L7 25L7 18ZM1 19L1 24L6 24L6 19ZM2 20L2 23L5 23L5 20Z" fill="#000000"/></g></g></svg>
