<?xml version="1.0" encoding="UTF-8"?>
<svg xmlns="http://www.w3.org/2000/svg" version="1.1" width="200" height="200" viewBox="0 0 200 200"><rect x="0" y="0" width="200" height="200" fill="#ffffff"/><g transform="scale(8)"><g transform="translate(0,0)"><path fill-rule="evenodd" d="M9 0L9 1L8 1L8 2L9 2L9 3L8 3L8 4L10 4L10 7L11 7L11 4L12 4L12 5L13 5L13 6L12 6L12 9L13 9L13 10L11 10L11 11L10 11L10 9L11 9L11 8L6 8L6 9L7 9L7 10L6 10L6 11L7 11L7 12L6 12L6 13L9 13L9 14L5 14L5 10L4 10L4 9L5 9L5 8L0 8L0 9L2 9L2 10L0 10L0 12L1 12L1 13L0 13L0 17L1 17L1 13L2 13L2 10L4 10L4 11L3 11L3 12L4 12L4 13L3 13L3 14L2 14L2 17L3 17L3 15L4 15L4 14L5 14L5 15L7 15L7 16L6 16L6 17L8 17L8 19L9 19L9 20L8 20L8 25L9 25L9 24L10 24L10 23L11 23L11 21L12 21L12 22L13 22L13 23L12 23L12 25L13 25L13 24L14 24L14 25L15 25L15 24L14 24L14 23L15 23L15 21L17 21L17 23L16 23L16 24L17 24L17 25L20 25L20 24L22 24L22 25L25 25L25 18L24 18L24 17L25 17L25 14L24 14L24 13L23 13L23 12L22 12L22 13L21 13L21 11L20 11L20 12L18 12L18 11L19 11L19 10L18 10L18 8L13 8L13 6L14 6L14 7L15 7L15 6L16 6L16 7L17 7L17 5L15 5L15 4L17 4L17 2L16 2L16 1L17 1L17 0L16 0L16 1L11 1L11 2L10 2L10 0ZM12 2L12 4L13 4L13 5L14 5L14 4L15 4L15 3L16 3L16 2L15 2L15 3L14 3L14 2ZM10 3L10 4L11 4L11 3ZM13 3L13 4L14 4L14 3ZM8 5L8 7L9 7L9 5ZM19 8L19 9L20 9L20 8ZM21 8L21 10L24 10L24 12L25 12L25 10L24 10L24 8L23 8L23 9L22 9L22 8ZM14 9L14 10L13 10L13 11L12 11L12 13L11 13L11 12L10 12L10 13L11 13L11 18L13 18L13 19L12 19L12 21L15 21L15 20L14 20L14 19L16 19L16 17L14 17L14 16L16 16L16 15L17 15L17 16L19 16L19 15L20 15L20 16L21 16L21 17L22 17L22 16L23 16L23 17L24 17L24 14L22 14L22 16L21 16L21 15L20 15L20 14L21 14L21 13L20 13L20 14L19 14L19 13L18 13L18 12L16 12L16 11L17 11L17 10L16 10L16 9ZM7 10L7 11L8 11L8 12L9 12L9 10ZM14 10L14 12L15 12L15 11L16 11L16 10ZM12 13L12 14L13 14L13 15L12 15L12 17L13 17L13 16L14 16L14 15L16 15L16 14L17 14L17 15L19 15L19 14L18 14L18 13L16 13L16 14L14 14L14 13ZM9 14L9 15L8 15L8 16L10 16L10 14ZM4 16L4 17L5 17L5 16ZM9 17L9 19L10 19L10 20L11 20L11 19L10 19L10 17ZM17 17L17 20L20 20L20 17ZM18 18L18 19L19 19L19 18ZM21 18L21 22L20 22L20 23L19 23L19 22L18 22L18 23L17 23L17 24L20 24L20 23L21 23L21 22L22 22L22 24L24 24L24 22L23 22L23 21L22 21L22 20L24 20L24 18ZM0 0L0 7L7 7L7 0ZM1 1L1 6L6 6L6 1ZM2 2L2 5L5 5L5 2ZM18 0L18 7L25 7L25 0ZM19 1L19 6L24 6L24 1ZM20 2L20 5L23 5L23 2ZM0 18L0 25L7 25L7 18ZM1 19L1 24L6 24L6 19ZM2 20L2 23L5 23L5 20Z" fill="#000000"/></g></g></svg>
